PathFileType	4	(X/Y/Z)	Walk1_0-155.trc
DataRate	CameraRate	NumFrames	NumMarkers	Units	OrigDataRate	OrigDataStartFrame	OrigNumFrames
30	30	7	22	m	30	135	155
Frame#	Time	Hip			RHip			RKnee			RAnkle			RBigToe			RSmallToe			RHeel			LHip			LKnee			LAnkle			LBigToe			LSmallToe			LHeel			Neck			Head			Nose			RShoulder			RElbow			RWrist			LShoulder			LElbow			LWrist		
		X1	Y1	Z1	X2	Y2	Z2	X3	Y3	Z3	X4	Y4	Z4	X5	Y5	Z5	X6	Y6	Z6	X7	Y7	Z7	X8	Y8	Z8	X9	Y9	Z9	X10	Y10	Z10	X11	Y11	Z11	X12	Y12	Z12	X13	Y13	Z13	X14	Y14	Z14	X15	Y15	Z15	X16	Y16	Z16	X17	Y17	Z17	X18	Y18	Z18	X19	Y19	Z19	X20	Y20	Z20	X21	Y21	Z21	X22	Y22	Z22
136	4.533333333333333	1.7651308315654914	0.8683672827135748	0.3842636546643437	1.801610098776774	0.8719780233246818	0.48604627971973574	1.958497865635575	0.5424820890423973	0.4736268746499549	1.9404573044677467	0.10792329707888526	0.46875055961250106	0.0	0.0	0.0	0.0	0.0	0.0	0.0	0.0	0.0	1.7280833686735788	0.866940656689009	0.2825203966275996	1.6600232800117434	0.5147089791218901	0.289194753594928	1.6384213148971045	0.10486927298910764	0.336315843308423	0.0	0.0	0.0	0.0	0.0	0.0	0.0	0.0	0.0	1.6348230238469506	1.4586760868786168	0.3558855070755668	1.77847070074615	1.7801074431977097	0.38709947480509443	1.863360244244514	1.66559928106017	0.3464458941552761	1.6212643660035007	1.4599324363219053	0.5403784255308041	1.6148966421123312	1.1632135410661861	0.6025693256984784	1.6328912936648277	0.9044251501798449	0.6422203040242395	1.6845476483631954	1.4724833426703954	0.21049804601008418	1.7852101971129972	1.1849895612874992	0.13218467600575615	1.9449037647188432	1.0185170404731414	0.10538031697236444
137	4.566666666666666	1.79580396996397	0.8636585923439719	0.3849956135507709	1.8328299900536549	0.8664710400382329	0.4867104961006269	2.0066194989016624	0.46504586594005815	0.49239830342840735	2.049931616364752	0.09563498777023306	0.4688890069013953	0.0	0.0	0.0	0.0	0.0	0.0	0.0	0.0	0.0	1.7582038604654144	0.8630859344066638	0.28321423513987726	1.6796339428042255	0.5031871260887643	0.2918720861671919	1.63478655627603	0.1022579466817871	0.33624661814187484	0.0	0.0	0.0	0.0	0.0	0.0	0.0	0.0	0.0	1.6692766937704855	1.457272065694955	0.35658231753630637	1.811170527895437	1.773756971737447	0.37736023673666136	1.8952224705105443	1.6621936153030452	0.33688223787396027	1.659953963844881	1.4590268858723179	0.5416806517238855	1.6387719741374753	1.1594224475311845	0.6073318047938722	1.6417192722457632	0.9041161957073358	0.6460754593518298	1.7164305610604784	1.469466665940684	0.2126259349271316	1.762099383242268	1.1695428843363114	0.0801259091871145	1.9853380637750724	1.0330458151075559	0.10576161836758693
138	4.6	1.8323981779710827	0.8536394702808332	0.3861385815258417	1.8663131250328402	0.8546731934950087	0.48751993824302714	1.9669448357636767	0.48447512666018255	0.4671994480016143	2.1187682202265865	0.11442592355748891	0.4798378935596813	0.0	0.0	0.0	0.0	0.0	0.0	0.0	0.0	0.0	1.7978183121557894	0.8550854246869517	0.2846677028594121	1.705664827994764	0.4900585583354675	0.29589314923359433	1.6458363746523965	0.10991804245981643	0.31895414538173533	0.0	0.0	0.0	0.0	0.0	0.0	0.0	0.0	0.0	1.701678037206656	1.4524215656486472	0.3610158563794164	1.8404101140388762	1.7700132400697381	0.3786110354269521	1.9258949574938404	1.656089945495028	0.3385519863246968	1.6908276193096512	1.4569231648532155	0.5461424018752095	1.6617658409977025	1.159739316629824	0.6077036326250919	1.6656422695414348	0.8966118062068457	0.6548536040940478	1.7465286158702875	1.4629739451097554	0.21379689101284624	1.7970669900944627	1.1620203717940236	0.07935115142435435	2.02537302002177	1.0401857401647858	0.1102491911083721
139	4.633333333333334	1.8662194938391157	0.8499668380161025	0.3860974079648141	1.9002424892825227	0.8502555145239095	0.4875795276544238	1.9987230263041336	0.48176594786240495	0.4670778615991596	2.1701424421803344	0.13539331405628807	0.4916500254983069	0.0	0.0	0.0	0.0	0.0	0.0	0.0	0.0	0.0	1.8313469078639966	0.8518508796239707	0.2846691656044944	1.7351944209967043	0.48685872081327153	0.29514205891881024	1.6458652799503208	0.1020174209193816	0.3410854025494835	0.0	0.0	0.0	0.0	0.0	0.0	0.0	0.0	0.0	1.7390622883485596	1.444071052763411	0.3704066819717945	1.9064453542509143	1.7943695239050415	0.3582289576682589	1.961250167732763	1.6485164749560346	0.3357381221640569	1.726841995942071	1.4485649292102065	0.5566911104433996	1.6941884099865807	1.1558790799175538	0.6143938475424343	1.6943055830302034	0.8976960072348319	0.6582167531761423	1.7817116375669344	1.453070573578748	0.21906005932719283	1.8793452222772664	1.1692975934775145	0.13634074292827827	2.0579900087177663	1.0353267347928474	0.12077706354158745
140	4.666666666666667	1.9101146543554448	0.8382030970131679	0.39003453771148283	1.943236139317615	0.838532487868563	0.49286661791547826	2.0298941213578026	0.47294119364328746	0.4735059867326472	2.197962997439702	0.11481944033480795	0.4895415196191167	0.0	0.0	0.0	0.0	0.0	0.0	0.0	0.0	0.0	1.8764840352791874	0.8400820940304552	0.2872718303964106	1.7670612033734612	0.483293150420648	0.29467630138115825	1.630332533253467	0.11365547228848877	0.31972799270209623	0.0	0.0	0.0	0.0	0.0	0.0	0.0	0.0	0.0	1.7731134209821233	1.4373153496617834	0.3753319906256783	1.9253388905593531	1.7844272401248227	0.3628436335924496	1.9896204976991678	1.6461257937907137	0.3372519097350122	1.762059580316412	1.4413415834786787	0.5615897923038609	1.730792199537949	1.147241582862283	0.6175244671742615	1.7219522067204418	0.8901560793254071	0.6663326085450513	1.8166190676033926	1.4479482716465002	0.22739855311448856	1.9094885743836771	1.1608751335410348	0.14074073098090087	2.0865530178701777	1.0327133778609476	0.1281949387810722
141	4.7	1.9467572473906207	0.8301221305668947	0.3949446062317974	1.9776638178595687	0.8309753164914975	0.4981930118686359	2.0668030053955393	0.4715971220472674	0.47306782993364627	2.216994671954048	0.1049585173694401	0.48222591428661327	0.0	0.0	0.0	0.0	0.0	0.0	0.0	0.0	0.0	1.9157459944830713	0.8314731251500694	0.29162260681641744	1.7992316169250329	0.48491958464803486	0.29476499921524335	1.6377469805916984	0.12232168406825616	0.32374241941130627	0.0	0.0	0.0	0.0	0.0	0.0	0.0	0.0	0.0	1.8077844843264048	1.4281574554381018	0.3835112347222205	1.9370028127583527	1.7488270981451202	0.38553124051941806	2.0221048746064474	1.6396676175190061	0.34014070142434105	1.794747587860453	1.4293200403165354	0.5691485609707844	1.7646732523671194	1.1382899874355208	0.6233824888832519	1.7610992255181566	0.8833404657055757	0.6678067223711265	1.8549439427770622	1.4433646932537554	0.24017646498668097	1.9421975217081175	1.149140538411735	0.1531658284383139	2.1615395312388173	0.9934879123526619	0.1307541398094076
142	4.733333333333333	1.9846670867632388	0.8309591067905635	0.4021639987225532	2.0176431662133	0.8318079641418281	0.505136138720453	2.104708985733761	0.4665703334780062	0.4719641890327009	2.229231268644534	0.09324512216245352	0.474701579667348	0.0	0.0	0.0	0.0	0.0	0.0	0.0	0.0	0.0	1.952557829083743	0.8317210110115212	0.29932037604179823	1.8486661382279452	0.4840554710417871	0.29630253011474317	1.648336427478949	0.1297492412545039	0.32156343990094566	0.0	0.0	0.0	0.0	0.0	0.0	0.0	0.0	0.0	1.8421515764808072	1.4236474192415218	0.39053986609958036	1.9726019525458165	1.7472222436281746	0.4007319135683055	2.0476953186368148	1.6382197139350163	0.35716910207287483	1.8300919224103358	1.4272768905361728	0.5700474206025288	1.8041197714675627	1.13591341767708	0.626947500971368	1.8057341587843965	0.8731088620396069	0.6719847308198619	1.8851095401459474	1.4343593117236046	0.2513308162773072	1.9678758385328559	1.1378574377536166	0.16338755229196955	2.1733271162096193	0.971338253148762	0.13666165213328163
